<svg width="239" height="60" viewBox="0 0 239 60" fill="none" xmlns="http://www.w3.org/2000/svg">
<path d="M81.4273 33.37H86.1523C86.2456 34.1633 86.6073 34.8867 87.2373 35.54C87.8906 36.17 88.7423 36.6717 89.7923 37.045C90.8423 37.395 92.0206 37.57 93.3273 37.57C94.5173 37.57 95.4973 37.4417 96.2673 37.185C97.0373 36.9283 97.609 36.5667 97.9823 36.1C98.3556 35.6333 98.5423 35.0733 98.5423 34.42C98.5423 33.79 98.309 33.3117 97.8423 32.985C97.3756 32.635 96.6406 32.355 95.6373 32.145C94.634 31.9117 93.3156 31.6783 91.6823 31.445C90.399 31.2583 89.1856 31.0017 88.0423 30.675C86.899 30.325 85.884 29.8817 84.9973 29.345C84.134 28.8083 83.4456 28.155 82.9323 27.385C82.4423 26.5917 82.1973 25.6583 82.1973 24.585C82.1973 23.255 82.5706 22.0883 83.3173 21.085C84.0873 20.0817 85.219 19.3 86.7123 18.74C88.2056 18.18 90.0373 17.9 92.2073 17.9C95.474 17.9 97.9823 18.6 99.7323 20C101.506 21.3767 102.369 23.2783 102.322 25.705H97.7723C97.679 24.3283 97.0956 23.3367 96.0223 22.73C94.9723 22.1233 93.6423 21.82 92.0323 21.82C90.539 21.82 89.3023 22.0417 88.3223 22.485C87.3656 22.9283 86.8873 23.6867 86.8873 24.76C86.8873 25.18 87.004 25.5533 87.2373 25.88C87.4706 26.1833 87.8673 26.4517 88.4273 26.685C88.9873 26.9183 89.7456 27.14 90.7023 27.35C91.659 27.56 92.849 27.77 94.2723 27.98C95.6023 28.1667 96.804 28.4233 97.8773 28.75C98.974 29.0533 99.9073 29.4617 100.677 29.975C101.471 30.465 102.077 31.095 102.497 31.865C102.917 32.635 103.127 33.58 103.127 34.7C103.127 36.0767 102.766 37.2783 102.042 38.305C101.342 39.3083 100.246 40.09 98.7523 40.65C97.2823 41.21 95.369 41.49 93.0123 41.49C91.3323 41.49 89.8506 41.315 88.5673 40.965C87.284 40.5917 86.1756 40.1017 85.2423 39.495C84.309 38.8883 83.5506 38.2233 82.9673 37.5C82.384 36.7767 81.964 36.0533 81.7073 35.33C81.474 34.6067 81.3806 33.9533 81.4273 33.37ZM126.764 41H122.214V23.605H126.764V41ZM122.459 32.635L122.494 33.825C122.447 34.1517 122.331 34.63 122.144 35.26C121.957 35.8667 121.666 36.52 121.269 37.22C120.896 37.92 120.406 38.5967 119.799 39.25C119.192 39.88 118.446 40.405 117.559 40.825C116.672 41.2217 115.622 41.42 114.409 41.42C113.452 41.42 112.507 41.3033 111.574 41.07C110.664 40.8367 109.836 40.4517 109.089 39.915C108.342 39.355 107.747 38.6083 107.304 37.675C106.861 36.7417 106.639 35.5633 106.639 34.14V23.605H111.189V33.37C111.189 34.49 111.364 35.3767 111.714 36.03C112.087 36.66 112.624 37.1033 113.324 37.36C114.024 37.6167 114.852 37.745 115.809 37.745C117.069 37.745 118.154 37.4767 119.064 36.94C119.974 36.38 120.709 35.7033 121.269 34.91C121.852 34.1167 122.249 33.3583 122.459 32.635ZM130.907 23.605H135.457V41H130.907V23.605ZM142.142 27.35C140.835 27.35 139.703 27.6067 138.747 28.12C137.79 28.61 137.02 29.2167 136.437 29.94C135.853 30.6633 135.445 31.3633 135.212 32.04L135.177 30.115C135.2 29.835 135.293 29.4267 135.457 28.89C135.62 28.33 135.865 27.735 136.192 27.105C136.518 26.4517 136.95 25.8333 137.487 25.25C138.023 24.6433 138.677 24.1533 139.447 23.78C140.217 23.4067 141.115 23.22 142.142 23.22V27.35ZM153.424 41.385C151.698 41.385 150.123 41.0117 148.699 40.265C147.299 39.495 146.179 38.4333 145.339 37.08C144.523 35.7033 144.114 34.1167 144.114 32.32C144.114 30.4767 144.534 28.8783 145.374 27.525C146.214 26.1717 147.346 25.1217 148.769 24.375C150.216 23.605 151.849 23.22 153.669 23.22C155.676 23.22 157.286 23.6283 158.499 24.445C159.736 25.2383 160.634 26.3233 161.194 27.7C161.754 29.0767 162.034 30.6167 162.034 32.32C162.034 33.3467 161.871 34.3967 161.544 35.47C161.218 36.52 160.716 37.5 160.039 38.41C159.363 39.2967 158.476 40.02 157.379 40.58C156.283 41.1167 154.964 41.385 153.424 41.385ZM154.894 37.885C156.271 37.885 157.461 37.6517 158.464 37.185C159.468 36.7183 160.238 36.065 160.774 35.225C161.311 34.385 161.579 33.4167 161.579 32.32C161.579 31.13 161.299 30.1267 160.739 29.31C160.203 28.47 159.433 27.84 158.429 27.42C157.449 26.9767 156.271 26.755 154.894 26.755C152.958 26.755 151.453 27.2683 150.379 28.295C149.306 29.2983 148.769 30.64 148.769 32.32C148.769 33.44 149.026 34.42 149.539 35.26C150.053 36.0767 150.764 36.7183 151.674 37.185C152.608 37.6517 153.681 37.885 154.894 37.885ZM161.579 23.605H166.129V41H161.894C161.894 41 161.859 40.7783 161.789 40.335C161.743 39.8683 161.696 39.285 161.649 38.585C161.603 37.885 161.579 37.1967 161.579 36.52V23.605ZM170.247 23.605H174.797V41H170.247V23.605ZM182.882 23.22C183.956 23.22 184.947 23.36 185.857 23.64C186.767 23.92 187.561 24.3517 188.237 24.935C188.914 25.5183 189.439 26.265 189.812 27.175C190.186 28.0617 190.372 29.1233 190.372 30.36V41H185.822V31.165C185.822 29.695 185.461 28.6217 184.737 27.945C184.037 27.245 182.882 26.895 181.272 26.895C180.059 26.895 178.962 27.1283 177.982 27.595C177.002 28.0617 176.209 28.6567 175.602 29.38C174.996 30.08 174.646 30.815 174.552 31.585L174.517 29.8C174.634 28.9833 174.902 28.19 175.322 27.42C175.742 26.65 176.302 25.95 177.002 25.32C177.726 24.6667 178.577 24.1533 179.557 23.78C180.537 23.4067 181.646 23.22 182.882 23.22ZM215.165 34.14C215.048 35.6567 214.558 36.9633 213.695 38.06C212.855 39.1567 211.688 39.9967 210.195 40.58C208.702 41.14 206.928 41.42 204.875 41.42C202.728 41.42 200.803 41.0817 199.1 40.405C197.42 39.705 196.09 38.69 195.11 37.36C194.153 36.0067 193.675 34.3383 193.675 32.355C193.675 30.3717 194.153 28.7033 195.11 27.35C196.09 25.9967 197.42 24.97 199.1 24.27C200.803 23.57 202.728 23.22 204.875 23.22C206.928 23.22 208.69 23.5117 210.16 24.095C211.63 24.655 212.785 25.4717 213.625 26.545C214.488 27.6183 214.99 28.9133 215.13 30.43H210.965C210.568 29.2633 209.833 28.3533 208.76 27.7C207.687 27.0467 206.392 26.72 204.875 26.72C203.662 26.72 202.553 26.93 201.55 27.35C200.57 27.77 199.777 28.4 199.17 29.24C198.587 30.0567 198.295 31.095 198.295 32.355C198.295 33.5917 198.587 34.63 199.17 35.47C199.753 36.2867 200.547 36.905 201.55 37.325C202.553 37.7217 203.662 37.92 204.875 37.92C206.508 37.92 207.838 37.5933 208.865 36.94C209.915 36.2867 210.627 35.3533 211 34.14H215.165ZM216.934 23.605H221.764L229.289 40.3L225.369 41L216.934 23.605ZM238.214 23.605L226.174 48H221.449L226.594 38.41L233.349 23.605H238.214Z" fill="#0F0F2D"/>
<path d="M30 15.6C25.3779 18.8763 19.6606 20.2216 14.0625 19.35V26.25C14.0578 30.7594 15.6592 35.123 18.5797 38.5588C21.5002 41.9947 25.5488 44.2782 30 45C34.4512 44.2782 38.4998 41.9947 41.4203 38.5588C44.3408 35.123 45.9422 30.7594 45.9375 26.25V19.425C40.3301 20.263 34.6163 18.8917 30 15.6ZM37.5 31.875H31.875V37.5H28.125V31.875H22.5V28.125H28.125V22.5H31.875V28.125H37.5V31.875Z" fill="#0F0F2D"/>
<path d="M57.4312 8.68126C57.2171 8.50451 56.9664 8.37751 56.6973 8.30942C56.4282 8.24132 56.1473 8.23384 55.8749 8.28751C39.8249 11.5875 31.7249 2.85001 31.3874 2.49376C31.2115 2.29735 30.9962 2.14024 30.7555 2.03267C30.5148 1.9251 30.2542 1.86951 29.9905 1.86951C29.7269 1.86951 29.4662 1.9251 29.2255 2.03267C28.9848 2.14024 28.7695 2.29735 28.5937 2.49376C28.5937 2.49376 20.2687 11.6063 4.21865 8.28751C3.93977 8.21548 3.64804 8.20867 3.36611 8.26761C3.08417 8.32655 2.8196 8.44965 2.59292 8.62736C2.36625 8.80508 2.18356 9.03262 2.05904 9.29235C1.93452 9.55207 1.87151 9.837 1.8749 10.125V25.725C1.83647 33.5732 4.63174 41.1717 9.74702 47.124C14.8623 53.0763 21.9539 56.9826 29.7187 58.125H30.2812C38.0459 56.9826 45.1375 53.0763 50.2528 47.124C55.3681 41.1717 58.1633 33.5732 58.1249 25.725V10.125C58.1231 9.84806 58.0599 9.57496 57.94 9.32533C57.82 9.07569 57.6462 8.85574 57.4312 8.68126ZM49.6874 26.25C49.6835 31.7059 47.72 36.9788 44.1547 41.1085C40.5893 45.2383 35.6593 47.9501 30.2624 48.75H29.7374C24.3405 47.9501 19.4105 45.2383 15.8451 41.1085C12.2798 36.9788 10.3164 31.7059 10.3124 26.25V17.2313C10.3073 16.952 10.3647 16.6751 10.4803 16.4208C10.596 16.1665 10.767 15.9413 10.9808 15.7616C11.1947 15.5819 11.446 15.4522 11.7164 15.3821C11.9868 15.312 12.2694 15.3031 12.5437 15.3563C23.0999 17.4 28.4249 12.0188 28.6312 11.7938C28.8108 11.6154 29.0247 11.4753 29.2599 11.3819C29.4951 11.2884 29.7469 11.2436 29.9999 11.25C30.2556 11.2484 30.509 11.2992 30.7444 11.3991C30.9798 11.4991 31.1922 11.6462 31.3687 11.8313C31.5937 12.075 36.9937 17.4563 47.4562 15.3938C47.7304 15.3406 48.013 15.3495 48.2834 15.4196C48.5538 15.4897 48.8051 15.6194 49.019 15.7991C49.2328 15.9788 49.4038 16.204 49.5195 16.4583C49.6351 16.7126 49.6925 16.9895 49.6874 17.2688V26.25Z" fill="#0F0F2D"/>
</svg>
